<svg xmlns="http://www.w3.org/2000/svg" width="250" height="250" fill="none" viewBox="0 0 250 250">
  <path fill="#F0DB4F" d="M.063.031v250.001h249.999v-250h-250ZM132.3 213.057c-3.691 7.498-10.735 12.424-18.897 14.802-12.541 2.88-24.538 1.238-33.462-4.118-5.972-3.664-10.636-9.304-13.801-15.802l19.04-11.66c.166.07.665.974 1.333 2.142 2.428 4.068 4.522 6.948 8.638 8.97 4.044 1.38 12.922 2.262 16.351-4.854 2.093-3.62 1.427-15.256 1.427-28.13-.002-20.23.092-40.376.092-60.376h23.418c0 22 .12 42.836 0 64.304.05 13.16 1.192 24.892-4.139 34.722Zm97.148-6.616c-8.141 27.844-53.525 28.748-71.661 10.352-3.832-4.33-6.233-6.592-8.519-11.59 9.637-5.544 9.637-5.544 19.015-10.97 5.095 7.83 9.804 12.136 18.279 13.898 11.495 1.404 23.061-2.546 20.467-14.756-2.665-9.972-23.539-12.397-37.745-23.062-14.423-9.685-17.803-33.222-5.95-46.67 3.949-4.974 10.686-8.686 17.753-10.47l7.376-.954c14.163-.286 23.014 3.454 29.512 10.711 1.809 1.831 3.285 3.807 6.044 8.089-7.544 4.808-7.52 4.762-18.325 11.758-2.309-4.972-6.138-8.092-10.187-9.448-6.284-1.904-14.208.166-15.851 6.806-.57 2.046-.452 3.95.454 7.33 2.546 5.806 11.089 8.33 18.754 11.852 22.062 8.948 29.511 18.542 31.344 29.962 1.763 9.832-.427 16.211-.76 17.162Z"/>
</svg>