<svg width="260" height="260" viewBox="0 0 260 260" fill="none" xmlns="http://www.w3.org/2000/svg">
<path d="M4.0625 2.03125V255.938H257.969V2.03125H4.0625ZM138.367 218.386C134.619 226.001 127.465 231.004 119.175 233.419C106.438 236.344 94.2541 234.676 85.1906 229.237C79.1253 225.515 74.3884 219.787 71.173 213.188L90.5105 201.346C90.6791 201.417 91.1869 202.335 91.8653 203.521C94.3313 207.653 96.458 210.578 100.638 212.631C104.745 214.033 113.762 214.929 117.244 207.701C119.37 204.025 118.694 192.207 118.694 179.132C118.692 158.586 118.787 138.125 118.787 117.812H142.571C142.571 140.156 142.693 161.318 142.571 183.121C142.622 196.487 143.782 208.402 138.367 218.386ZM237.033 211.666C228.765 239.945 182.672 240.864 164.253 222.18C160.361 217.782 157.922 215.485 155.6 210.409C165.388 204.778 165.388 204.778 174.913 199.268C180.087 207.22 184.87 211.593 193.477 213.383C205.152 214.809 216.899 210.797 214.264 198.396C211.557 188.268 190.357 185.805 175.929 174.974C161.281 165.137 157.848 141.233 169.886 127.575C173.897 122.523 180.739 118.753 187.917 116.941L195.408 115.972C209.792 115.682 218.782 119.48 225.381 126.85C227.218 128.71 228.717 130.717 231.52 135.066C223.858 139.949 223.882 139.902 212.908 147.008C210.563 141.958 206.674 138.789 202.562 137.412C196.18 135.478 188.132 137.581 186.463 144.324C185.884 146.402 186.004 148.336 186.924 151.769C189.51 157.666 198.187 160.229 205.971 163.806C228.378 172.894 235.944 182.638 237.805 194.236C239.596 204.222 237.372 210.7 237.033 211.666Z" fill="#F0DB4F"/>
</svg>