<?xml version="1.0" standalone="no"?>
<!DOCTYPE svg PUBLIC "-//W3C//DTD SVG 20010904//EN"
 "http://www.w3.org/TR/2001/REC-SVG-20010904/DTD/svg10.dtd">
<svg version="1.0" xmlns="http://www.w3.org/2000/svg"
 width="700.000000pt" height="700.000000pt" viewBox="0 0 700.000000 700.000000"
 preserveAspectRatio="xMidYMid meet">
<metadata>
Created by potrace 1.14, written by Peter Selinger 2001-2017
</metadata>
<g transform="translate(0.000000,700.000000) scale(0.100000,-0.100000)"
fill="#000000" stroke="none">
<path d="M5104 3805 c-116 -16 -205 -45 -329 -109 -83 -42 -116 -67 -191 -141
-105 -105 -159 -191 -205 -326 -29 -83 -33 -110 -37 -235 -5 -160 10 -257 59
-384 110 -285 307 -442 844 -670 306 -130 432 -215 472 -318 23 -60 22 -164
-1 -225 -23 -61 -105 -136 -181 -165 -125 -48 -331 -54 -448 -13 -146 51 -283
159 -372 294 -21 31 -42 57 -48 57 -9 0 -493 -275 -510 -290 -20 -18 62 -142
188 -284 159 -180 410 -307 710 -358 102 -17 148 -19 305 -15 115 3 212 11
255 21 424 96 679 329 750 685 13 64 16 116 13 220 -7 172 -27 259 -90 390
-45 94 -60 115 -152 206 -158 159 -304 247 -671 405 -266 114 -340 155 -406
220 -46 45 -58 65 -69 110 -49 197 45 343 239 370 168 23 333 -59 427 -211 22
-35 41 -56 48 -52 6 4 112 72 236 151 123 79 230 146 237 149 21 8 16 20 -34
95 -63 93 -171 209 -248 263 -201 144 -486 202 -791 160z"/>
<path d="M3155 3253 c-4 -291 -6 -802 -4 -1138 3 -639 0 -695 -41 -774 -25
-50 -76 -96 -135 -123 -41 -19 -67 -23 -150 -23 -94 0 -106 3 -168 33 -76 38
-145 108 -212 217 -24 39 -49 69 -55 67 -25 -6 -510 -308 -510 -317 0 -21 90
-163 147 -230 212 -252 547 -378 919 -345 211 19 339 59 477 150 161 106 272
256 327 441 49 163 50 187 50 1417 l0 1152 -319 0 -318 0 -8 -527z"/>
</g>
</svg>
